<?xml version="1.0" encoding="UTF-8"?>
<svg version="1.1" xmlns="http://www.w3.org/2000/svg" width="16" height="16">
<path d="M0 0 C0.89381941 3.49402134 1.23253301 5.41866747 -0.125 8.8125 C-2 11 -2 11 -4.4375 12.0625 C-7 12 -7 12 -9.375 10.375 C-11 8 -11 8 -10.9375 5.4375 C-8.69616688 -0.38996611 -6.03283993 -0.34148151 0 0 Z M-5 2 C-5.99 2.99 -6.98 3.98 -8 5 C-7.67 5.99 -7.34 6.98 -7 8 C-5.68 7.67 -4.36 7.34 -3 7 C-2.67 5.68 -2.34 4.36 -2 3 C-2.99 2.67 -3.98 2.34 -5 2 Z " fill="#FEE400" transform="translate(13,2)"/>
</svg>
